<?xml version="1.0" standalone="no"?>
<!DOCTYPE svg PUBLIC "-//W3C//DTD SVG 20010904//EN"
 "http://www.w3.org/TR/2001/REC-SVG-20010904/DTD/svg10.dtd">
<svg version="1.0" xmlns="http://www.w3.org/2000/svg"
 width="64.000000pt" height="64.000000pt" viewBox="0 0 64.000000 64.000000"
 preserveAspectRatio="xMidYMid meet">

<g transform="translate(0.000000,64.000000) scale(0.100000,-0.100000)"
fill="#000000" stroke="none">
<path d="M392 540 c-11 -12 -26 -18 -34 -15 -20 8 -51 -23 -43 -43 3 -8 -3
-23 -15 -34 -25 -24 -25 -32 0 -56 12 -11 18 -26 15 -34 -8 -20 23 -51 43 -43
8 3 23 -3 34 -15 10 -11 23 -20 28 -20 5 0 18 9 28 20 11 12 26 18 34 15 20
-8 51 23 43 43 -3 8 3 23 15 34 25 24 25 32 0 56 -12 11 -18 26 -15 34 8 20
-23 51 -43 43 -8 -3 -23 3 -34 15 -10 11 -23 20 -28 20 -5 0 -18 -9 -28 -20z
m48 -15 c0 -9 16 -31 35 -50 19 -19 41 -35 50 -35 8 0 15 -9 15 -20 0 -11 -7
-20 -15 -20 -20 0 -85 -65 -85 -85 0 -8 -9 -15 -20 -15 -11 0 -20 7 -20 15 0
20 -65 85 -85 85 -8 0 -15 9 -15 20 0 11 7 20 15 20 20 0 85 65 85 85 0 8 9
15 20 15 11 0 20 -7 20 -15z m-70 -18 c0 -2 -9 -12 -20 -22 -19 -18 -20 -17
-20 3 0 15 6 22 20 22 11 0 20 -2 20 -3z m140 -17 c0 -11 -2 -20 -3 -20 -2 0
-12 9 -22 20 -18 19 -17 20 3 20 15 0 22 -6 22 -20z m-152 -148 c2 -7 -3 -12
-12 -12 -9 0 -16 7 -16 16 0 17 22 14 28 -4z m152 3 c0 -8 -7 -15 -15 -15 -16
0 -20 12 -8 23 11 12 23 8 23 -8z"/>
<path d="M397 473 c-24 -6 -39 -47 -28 -77 17 -43 92 -40 104 4 6 23 -10 70
-24 70 -4 0 -13 2 -21 4 -7 2 -21 2 -31 -1z m53 -28 c26 -32 -13 -81 -47 -59
-23 14 -28 41 -13 59 16 19 44 19 60 0z"/>
<path d="M72 338 c-16 -16 -16 -190 0 -206 19 -19 66 -15 80 7 11 17 16 15 87
-31 58 -38 82 -48 102 -44 35 7 225 122 233 141 7 19 -2 42 -18 48 -8 3 -50
-5 -95 -18 -62 -17 -81 -19 -81 -10 0 29 -31 45 -84 45 -40 0 -57 5 -71 20
-10 11 -28 20 -39 20 -12 0 -27 9 -34 20 -14 22 -61 27 -80 8z m68 -103 c0
-57 -4 -95 -10 -95 -5 0 -10 9 -10 20 0 11 -4 20 -10 20 -5 0 -10 -9 -10 -20
0 -11 -4 -20 -10 -20 -6 0 -10 38 -10 95 l0 95 30 0 30 0 0 -95z m82 35 c11
-17 24 -20 75 -20 56 0 63 -2 63 -20 0 -18 -7 -20 -60 -20 -33 0 -60 -4 -60
-10 0 -18 110 -10 200 15 106 30 120 31 120 7 0 -23 -194 -142 -230 -142 -14
0 -58 23 -97 51 l-73 50 0 55 c0 51 1 54 25 54 14 0 30 -9 37 -20z"/>
</g>
</svg>
